<svg width="24" height="30" viewBox="0 0 24 30" fill="none" xmlns="http://www.w3.org/2000/svg">
<g clip-path="url(#clip0_120_350)">
<path d="M12 14.8477C12.7275 14.8477 13.3425 14.5888 13.86 14.0711C14.37 13.5533 14.625 12.9213 14.625 12.1827C14.625 11.4442 14.37 10.8198 13.86 10.2944C13.35 9.77665 12.7275 9.51777 12 9.51777C11.2725 9.51777 10.6575 9.77665 10.14 10.2944C9.63 10.8122 9.375 11.4442 9.375 12.1827C9.375 12.9213 9.63 13.5457 10.14 14.0711C10.65 14.5888 11.2725 14.8477 12 14.8477ZM12 27.4492C15.3225 24.3807 17.7825 21.5939 19.3725 19.0888C20.9625 16.5914 21.75 14.3909 21.75 12.4873C21.75 9.49492 20.805 7.04315 18.915 5.13959C17.025 3.23604 14.7225 2.28426 12 2.28426C9.2775 2.28426 6.9675 3.23604 5.0775 5.13959C3.1875 7.04315 2.25 9.49492 2.25 12.4873C2.25 14.3909 3.06 16.5914 4.6875 19.0964C6.315 21.5939 8.7525 24.3807 12 27.4492ZM12.0375 30C11.865 30 11.7 29.9772 11.55 29.9239C11.4 29.8706 11.265 29.7944 11.1375 29.6954C7.41 26.368 4.6275 23.2843 2.775 20.4442C0.9225 17.6041 0 14.9467 0 12.4873C0 8.6802 1.2075 5.64975 3.615 3.38832C6.03 1.1269 8.8275 0 12 0C15.1725 0 17.97 1.1269 20.3775 3.38832C22.7925 5.64975 24 8.6802 24 12.4873C24 14.9467 23.0775 17.6041 21.225 20.4442C19.3725 23.2843 16.59 26.368 12.8625 29.6954C12.735 29.7944 12.6075 29.8706 12.4725 29.9239C12.3375 29.9772 12.1875 30 12.0375 30Z" fill="#FF5F2D"/>
</g>
<defs>
<clipPath id="clip0_120_350">
<rect width="24" height="30" fill="white"/>
</clipPath>
</defs>
</svg>
