<svg id="Agrupar_1" data-name="Agrupar 1" xmlns="http://www.w3.org/2000/svg" width="267.75" height="59" viewBox="0 0 267.75 59">
  <metadata><?xpacket begin="﻿" id="W5M0MpCehiHzreSzNTczkc9d"?>
<x:xmpmeta xmlns:x="adobe:ns:meta/" x:xmptk="Adobe XMP Core 5.6-c138 79.159824, 2016/09/14-01:09:01        ">
   <rdf:RDF xmlns:rdf="http://www.w3.org/1999/02/22-rdf-syntax-ns#">
      <rdf:Description rdf:about=""/>
   </rdf:RDF>
</x:xmpmeta>
<?xpacket end="w"?></metadata>
<defs>
    <style>
      .cls-1, .cls-2 {
        fill: #ff5f2d;
      }

      .cls-2, .cls-3 {
        fill-rule: evenodd;
      }

      .cls-3 {
        fill: #fff;
      }
    </style>
  </defs>
  <circle id="Elipse_2" data-name="Elipse 2" class="cls-1" cx="29.563" cy="29.438" r="29.563"/>
  <path id="ingressolive" class="cls-2" d="M75.946,43.764V20.514h-5.24V43.764h5.24ZM71.033,15.657a3.242,3.242,0,1,0,0-4.584A3.262,3.262,0,0,0,71.033,15.657ZM83.2,31.211c0-3.929,1.8-5.949,4.639-5.949s4.694,2.074,4.694,5.949V43.764h5.24V31.211c0-3.657-.983-6.44-2.947-8.241a10.307,10.307,0,0,0-13.973,0c-1.91,1.8-2.893,4.53-2.893,8.241V43.764H83.2V31.211ZM101,46.765a10.783,10.783,0,0,0,3.329,7.8,11,11,0,0,0,7.751,2.893,10.868,10.868,0,0,0,7.914-3.056,10.729,10.729,0,0,0,3.166-8.186V32.3a11.348,11.348,0,0,0-3.548-8.841,12.172,12.172,0,0,0-8.405-3.22,11.834,11.834,0,0,0-11.954,11.9,11.745,11.745,0,0,0,11.954,11.9,13.258,13.258,0,0,0,5.894-1.528,8.148,8.148,0,0,0,.819-0.6v4.312c0,3.984-1.965,6.495-5.84,6.495-3.657,0-5.677-2.292-5.84-5.949H101Zm3.493-14.626a6.715,6.715,0,1,1,13.427,0A6.715,6.715,0,1,1,104.491,32.139ZM130.2,29.9c0-2.892,1.31-4.366,3.93-4.366h0.983V20.514h-1.256c-5.076,0-8.842,2.674-8.842,9.387V43.764H130.2V29.9Zm15.774-9.66a11.926,11.926,0,0,0-11.953,11.9,11.742,11.742,0,0,0,11.9,11.9,12.372,12.372,0,0,0,7.641-2.674,14.134,14.134,0,0,0,2.074-2.347,8.573,8.573,0,0,0,1.474-2.729h-5.622L150.993,37a6.832,6.832,0,0,1-11.462-2.62h13.263c3.111,0,4.64-1.8,4.64-3.984a9.43,9.43,0,0,0-3.33-6.986A11.286,11.286,0,0,0,145.972,20.241Zm-6.386,9.442a6.3,6.3,0,0,1,6.386-4.475c3.22,0,5.84,2.128,6.277,4.475H139.586Zm33.731,7.149c0.055-4.584-3.6-6.331-6.44-7.149-1.965-.709-3.493-1.474-3.493-2.62q0-1.8,2.947-1.8a12.375,12.375,0,0,1,6,1.31V21.715l-0.655-.382a12.94,12.94,0,0,0-5.349-1.091c-4.748,0-8.187,2.62-8.187,6.822,0,7.477,9.934,6.167,9.934,9.769,0,1.474-1.037,2.183-3.166,2.183a12.3,12.3,0,0,1-6.5-1.746v5.075l0.819,0.437a13.661,13.661,0,0,0,5.676,1.255C169.988,44.036,173.317,41.253,173.317,36.832Zm15.556,0c0.055-4.584-3.6-6.331-6.44-7.149-1.965-.709-3.494-1.474-3.494-2.62q0-1.8,2.948-1.8a12.377,12.377,0,0,1,6,1.31V21.715l-0.655-.382a12.948,12.948,0,0,0-5.349-1.091c-4.749,0-8.187,2.62-8.187,6.822,0,7.477,9.933,6.167,9.933,9.769,0,1.474-1.037,2.183-3.165,2.183a12.3,12.3,0,0,1-6.495-1.746v5.075l0.818,0.437a13.666,13.666,0,0,0,5.677,1.255C185.544,44.036,188.873,41.253,188.873,36.832Zm0.327-4.693a11.451,11.451,0,0,0,3.493,8.459,12.061,12.061,0,0,0,16.866,0,11.451,11.451,0,0,0,3.493-8.459A11.926,11.926,0,0,0,189.2,32.139Zm7.15-4.912a6.505,6.505,0,0,1,4.8-1.965,6.3,6.3,0,0,1,4.749,1.965,6.5,6.5,0,0,1,1.965,4.912,6.7,6.7,0,0,1-1.965,4.966,6.459,6.459,0,0,1-4.749,1.91,6.675,6.675,0,0,1-4.8-1.91,6.88,6.88,0,0,1-1.91-4.966A6.663,6.663,0,0,1,196.35,27.227Zm23.579,16.536V7.2h-5.24V43.764h5.24Zm7.15,0V20.514h-5.24V43.764h5.24Zm-4.912-28.106a3.242,3.242,0,1,0,0-4.584A3.262,3.262,0,0,0,222.167,15.657ZM236.63,44.036c1.911,0,2.73-1.092,3.33-2.892l6.659-20.63H241.27L236.63,35.2l-4.584-14.681h-5.4l6.659,20.63C233.956,43.054,235.048,44.036,236.63,44.036Zm19.7-23.795a11.926,11.926,0,0,0-11.953,11.9,11.742,11.742,0,0,0,11.9,11.9,12.375,12.375,0,0,0,7.642-2.674A14.225,14.225,0,0,0,266,39.015a8.557,8.557,0,0,0,1.473-2.729h-5.621L261.355,37a6.831,6.831,0,0,1-11.461-2.62h13.263c3.111,0,4.639-1.8,4.639-3.984a9.43,9.43,0,0,0-3.33-6.986A11.284,11.284,0,0,0,256.334,20.241Zm-6.386,9.442a6.3,6.3,0,0,1,6.386-4.475c3.22,0,5.84,2.128,6.277,4.475H249.948Z" transform="translate(-0.031)"/>
  <path id="Forma_2" data-name="Forma 2" class="cls-3" d="M31.941,38.492c0.256-.506.522-0.979,0.741-1.472A19.281,19.281,0,0,0,34,32.55c0.177-.983.317-1.973,0.44-2.964,0.082-.661.112-1.329,0.149-1.994s0.08-1.32.07-1.979c-0.016-1.1-.059-2.194-0.114-3.291a31.532,31.532,0,0,0-.763-5.4l-0.091-.4a3.749,3.749,0,0,1,.38.334c0.154,0.179.267,0.138,0.42-.009,0.29-.278.6-0.537,0.914-0.817,0.314,0.278.627,0.542,0.922,0.824a0.239,0.239,0,0,0,.4.011c0.248-.247.526-0.464,0.782-0.7a0.186,0.186,0,0,1,.3,0c0.251,0.234.521,0.448,0.764,0.69a0.265,0.265,0,0,0,.443-0.006c0.234-.229.492-0.436,0.73-0.662a0.215,0.215,0,0,1,.355,0c0.257,0.249.539,0.472,0.8,0.718a0.193,0.193,0,0,0,.319,0c0.311-.289.633-0.567,0.966-0.864,0.319,0.282.637,0.55,0.938,0.836a0.231,0.231,0,0,0,.387,0c0.295-.284.61-0.546,0.939-0.837,0.3,0.264.592,0.524,0.885,0.785,0.244,0.218.244,0.22,0.486,0.006s0.468-.418.7-0.627c0.205-.184.372-0.134,0.441,0.149,0.127,0.525.269,1.05,0.355,1.582,0.182,1.125.354,2.252,0.487,3.383,0.088,0.742.106,1.493,0.146,2.241,0.025,0.467.05,0.935,0.042,1.4-0.017,1.024-.023,2.049-0.092,3.07a30.131,30.131,0,0,1-1.425,7.8,12.365,12.365,0,0,1-1.119,2.447,0.426,0.426,0,0,1-.412.235q-6.4-.008-12.8,0C32.087,38.5,32.021,38.5,31.941,38.492ZM27.033,20.274c0.325,0.286.645,0.553,0.946,0.84a0.221,0.221,0,0,0,.37,0c0.247-.238.517-0.452,0.765-0.69a0.209,0.209,0,0,1,.35-0.01c0.24,0.234.509,0.439,0.748,0.675a0.25,0.25,0,0,0,.424.01c0.248-.247.524-0.467,0.781-0.706a0.175,0.175,0,0,1,.283,0c0.279,0.259.57,0.5,0.85,0.763a0.177,0.177,0,0,0,.286,0c0.149-.144.309-0.277,0.492-0.439,0.05,0.51.125,0.985,0.139,1.462,0.044,1.461.1,2.923,0.084,4.384-0.011,1.013-.121,2.026-0.21,3.037a27.344,27.344,0,0,1-.767,4.462,13.291,13.291,0,0,1-1.612,3.918,1.042,1.042,0,0,0,.97,1.606c1.477,0.007,2.954,0,4.431,0h0.28a0.773,0.773,0,0,1-.014.131,12.638,12.638,0,0,1-1.275,2.863,0.338,0.338,0,0,1-.323.186q-6.466-.007-12.933,0H21.948a0.465,0.465,0,0,1,.03-0.1A14.906,14.906,0,0,0,23.7,38.315a26.609,26.609,0,0,0,.722-4.132c0.094-1.025.171-2.053,0.221-3.081,0.041-.845.071-1.694,0.036-2.538-0.051-1.236-.121-2.474-0.264-3.7-0.138-1.189-.376-2.367-0.574-3.55a0.289,0.289,0,0,1,.1-0.312c0.236-.195.465-0.4,0.687-0.608a0.174,0.174,0,0,1,.283,0c0.275,0.253.561,0.493,0.834,0.747a0.2,0.2,0,0,0,.32-0.008C26.379,20.845,26.7,20.568,27.033,20.274ZM22.72,25.513l0.63-.543c0.033,0.247.07,0.454,0.087,0.662,0.05,0.62.11,1.241,0.135,1.863,0.032,0.8.064,1.6,0.043,2.4-0.028,1.067-.093,2.133-0.169,3.2a28.885,28.885,0,0,1-.9,5.45A12.427,12.427,0,0,1,21,42.205a0.989,0.989,0,0,0-.037,1.078,1.019,1.019,0,0,0,.945.538c1.507,0,3.014,0,4.521,0h0.287c-0.106.3-.181,0.582-0.3,0.841-0.328.714-.675,1.42-1.014,2.13a0.341,0.341,0,0,1-.354.206q-6.422-.008-12.843,0c-0.066,0-.131-0.006-0.2-0.01a0.224,0.224,0,0,1,.01-0.075,15.362,15.362,0,0,0,1.8-4.654,34.072,34.072,0,0,0,.684-4.072,42.133,42.133,0,0,0,.2-6.113,35.274,35.274,0,0,0-.8-6.52,0.361,0.361,0,0,1,.078-0.286c0.22-.223.465-0.42,0.694-0.634a0.175,0.175,0,0,1,.284,0c0.308,0.282.625,0.555,0.94,0.83a0.357,0.357,0,0,0,.069.029l1.111-.976c0.31,0.274.62,0.53,0.908,0.808a0.259,0.259,0,0,0,.439.007c0.285-.282.6-0.536,0.915-0.818,0.318,0.282.631,0.546,0.926,0.828a0.241,0.241,0,0,0,.4,0c0.25-.246.526-0.464,0.781-0.705a0.184,0.184,0,0,1,.3,0C22.059,24.933,22.385,25.216,22.72,25.513ZM31.9,12h0.262q6.384,0,12.768,0a0.422,0.422,0,0,1,.413.227,12.977,12.977,0,0,1,1.252,2.823,0.291,0.291,0,0,1-.076.243c-0.252.243-.527,0.463-0.779,0.706a0.192,0.192,0,0,1-.317-0.009c-0.262-.244-0.537-0.474-0.8-0.719a0.206,0.206,0,0,0-.338,0c-0.308.29-.632,0.565-0.961,0.856-0.332-.293-0.657-0.567-0.965-0.857a0.2,0.2,0,0,0-.336,0c-0.261.245-.537,0.474-0.8,0.718a0.191,0.191,0,0,1-.317.006c-0.264-.253-0.549-0.484-0.815-0.733a0.2,0.2,0,0,0-.321,0c-0.273.254-.559,0.494-0.832,0.748a0.174,0.174,0,0,1-.282,0c-0.274-.253-0.56-0.493-0.833-0.748a0.2,0.2,0,0,0-.321,0c-0.267.25-.551,0.481-0.815,0.733a0.19,0.19,0,0,1-.316-0.006c-0.261-.245-0.538-0.473-0.8-0.718a0.2,0.2,0,0,0-.335,0c-0.264.253-.549,0.483-0.815,0.733-0.112.106-.2,0.116-0.3,0a0.088,0.088,0,0,0-.017-0.015,2.68,2.68,0,0,1-1.054-1.508,9.224,9.224,0,0,0-1.091-2.335C31.948,12.111,31.936,12.077,31.9,12ZM12.026,20.514h0.219q5,0,10.008,0a0.312,0.312,0,0,1,.381.285c0.2,1.077.409,2.152,0.61,3.229a0.228,0.228,0,0,1-.059.175c-0.142.141-.3,0.27-0.462,0.417-0.311-.276-0.62-0.534-0.908-0.812a0.262,0.262,0,0,0-.44-0.006c-0.286.281-.6,0.538-0.914,0.819-0.316-.281-0.628-0.546-0.925-0.827a0.242,0.242,0,0,0-.405,0c-0.248.247-.526,0.464-0.782,0.7a0.184,0.184,0,0,1-.3,0c-0.261-.245-0.544-0.468-0.8-0.719a0.222,0.222,0,0,0-.37.006c-0.222.21-.454,0.41-0.683,0.613-0.083.073-.168,0.144-0.262,0.224-0.314-.278-0.625-0.534-0.912-0.816a0.261,0.261,0,0,0-.44.006c-0.25.245-.521,0.47-0.784,0.7a1.393,1.393,0,0,1-.117.085c-0.241-.7-0.449-1.408-0.724-2.086S12.345,21.189,12.026,20.514Zm16.139-.14c-0.335-.3-0.653-0.568-0.956-0.855a0.212,0.212,0,0,0-.352,0c-0.264.252-.548,0.484-0.817,0.733a0.163,0.163,0,0,1-.264.006c-0.28-.257-0.572-0.5-0.85-0.762a0.187,0.187,0,0,0-.3,0c-0.312.287-.633,0.563-0.993,0.882a15.192,15.192,0,0,0-1.69-4.092c0.118-.006.19-0.013,0.262-0.013q5.026,0,10.051-.006a0.287,0.287,0,0,1,.341.276c0.2,1.04.4,2.077,0.6,3.117a0.857,0.857,0,0,1-.489.666,0.294,0.294,0,0,1-.169-0.09c-0.276-.24-0.552-0.481-0.819-0.73a0.2,0.2,0,0,0-.323,0c-0.267.25-.547,0.485-0.815,0.734a0.2,0.2,0,0,1-.32-0.007c-0.255-.241-0.533-0.457-0.781-0.7a0.23,0.23,0,0,0-.387.012C28.8,19.822,28.486,20.088,28.165,20.373Z" transform="translate(-0.031)"/>
</svg>
