<svg width="100" height="70" viewBox="0 0 100 70" fill="none" xmlns="http://www.w3.org/2000/svg">
<path d="M56.8182 41.5625C53.0227 41.5625 49.8182 40.2938 47.1591 37.7344C44.5 35.175 43.1818 32.0906 43.1818 28.4375C43.1818 24.7844 44.5 21.7 47.1591 19.1406C49.8182 16.5812 53.0227 15.3125 56.8182 15.3125C60.6136 15.3125 63.8182 16.5812 66.4773 19.1406C69.1364 21.7 70.4545 24.7844 70.4545 28.4375C70.4545 32.0906 69.1364 35.175 66.4773 37.7344C63.8182 40.2938 60.6136 41.5625 56.8182 41.5625ZM20.4545 56.875C18.5682 56.875 16.9545 56.2406 15.6364 54.95C14.3182 53.6594 13.6364 52.1281 13.6364 50.3125V6.5625C13.6364 4.74687 14.2955 3.19375 15.6364 1.925C16.9773 0.65625 18.5682 0 20.4545 0H93.1818C95.0682 0 96.6818 0.634375 98 1.925C99.3182 3.21563 100 4.74687 100 6.5625V50.3125C100 52.1281 99.3409 53.6813 98 54.95C96.6591 56.2188 95.0682 56.875 93.1818 56.875H20.4545ZM31.8182 50.3125H81.8182C81.8182 47.25 82.9091 44.6688 85.1136 42.5469C87.3182 40.425 90 39.375 93.1818 39.375V17.5C90 17.5 87.3182 16.45 85.1136 14.3281C82.9091 12.2063 81.8182 9.625 81.8182 6.5625H31.8182C31.8182 9.625 30.7273 12.2063 28.5227 14.3281C26.3182 16.45 23.6364 17.5 20.4545 17.5V39.375C23.6364 39.375 26.3182 40.425 28.5227 42.5469C30.7273 44.6688 31.8182 47.25 31.8182 50.3125ZM6.81818 70C4.93182 70 3.31818 69.3656 2 68.075C0.681818 66.7844 0 65.2531 0 63.4375V16.4062C0 15.4656 0.318182 14.6781 0.954545 14.0656C1.59091 13.4531 2.40909 13.125 3.40909 13.125C4.40909 13.125 5.20455 13.4312 5.84091 14.0656C6.47727 14.6781 6.81818 15.4656 6.81818 16.4062V63.4375H82.9545C83.9318 63.4375 84.75 63.7438 85.4091 64.3562C86.0682 64.9688 86.3636 65.7562 86.3636 66.7188C86.3636 67.6813 86.0455 68.4469 85.4091 69.0813C84.7727 69.7156 83.9545 70 82.9545 70H6.81818ZM20.4545 50.3125V6.5625V50.3125Z" fill="#FF5F2D"/>
</svg>
