<svg width="100" height="90" viewBox="0 0 100 90" fill="none" xmlns="http://www.w3.org/2000/svg">
<g clip-path="url(#clip0_120_338)">
<path d="M12.5622 89.5522C10.5721 89.5522 8.83081 88.806 7.33827 87.3134C5.84573 85.8209 5.09946 84.0796 5.09946 82.0896V39.9254C2.78603 37.9353 1.24374 35.4975 0.497474 32.5871C-0.248795 29.6766 -0.174168 26.791 0.74623 23.8806L6.09449 7.08955C6.76613 4.85075 7.91041 3.10945 9.57708 1.86567C11.2437 0.621891 13.1343 0 15.2985 0H84.0796C86.393 0 88.4328 0.646766 90.1741 1.9403C91.9154 3.23383 93.1094 4.95025 93.7811 7.08955L99.2537 23.8806C100.174 26.791 100.224 29.6766 99.4527 32.5871C98.6567 35.4975 97.1144 37.9353 94.7761 39.9254V82.0896C94.7761 84.0796 94.0298 85.8209 92.5373 87.3134C91.0447 88.806 89.3034 89.5522 87.3134 89.5522H12.5622ZM61.194 36.0697C63.6069 36.0697 65.6218 35.2736 67.2885 33.7065C68.9552 32.1393 69.602 30.2239 69.2786 27.9851L66.1691 7.46269H53.7313V27.9851C53.7313 30.1493 54.4278 32.0149 55.8457 33.6318C57.2636 35.2488 59.0298 36.0697 61.194 36.0697ZM37.9353 36.0697C40.2487 36.0697 42.2388 35.2736 43.8557 33.7065C45.4726 32.1393 46.2935 30.2239 46.2935 27.9851V7.46269H33.8557L30.7462 27.9851C30.4228 30.1493 30.995 32.0149 32.4875 33.6318C33.9801 35.2488 35.796 36.0697 37.9602 36.0697H37.9353ZM15.2985 36.0697C17.2885 36.0697 19.0049 35.398 20.4477 34.005C21.8905 32.6368 22.7612 30.9453 22.985 28.9801L26.2189 7.46269H13.7811L8.05966 25.6219C7.23877 28.1841 7.56215 30.5721 9.05469 32.7861C10.5472 34.9751 12.6119 36.0945 15.2736 36.0945L15.2985 36.0697ZM84.5771 36.0697C87.2388 36.0697 89.3283 35 90.8706 32.8358C92.4129 30.6716 92.7612 28.2836 91.9154 25.6219L86.194 7.46269H73.7562L76.99 28.9801C77.2388 30.9701 78.0845 32.6617 79.5522 34.005C80.995 35.3731 82.6865 36.0697 84.602 36.0697H84.5771ZM12.5622 82.0896H87.3134V43.408C87.3134 43.408 87.1144 43.5323 86.4925 43.5323H84.5771C82.5124 43.5323 80.5472 43.0846 78.6567 42.2388C76.791 41.3682 74.9502 40.0249 73.1094 38.209C71.791 39.8756 70.1243 41.1692 68.1343 42.1393C66.1442 43.0846 63.9552 43.5821 61.5423 43.5821C59.1293 43.5821 56.9154 43.2338 55.1243 42.5373C53.3333 41.8408 51.6169 40.6468 49.9751 38.9801C48.7313 40.4726 47.1641 41.6169 45.2487 42.4129C43.3333 43.209 41.194 43.607 38.7811 43.607C36.2189 43.607 33.9303 43.1592 31.9403 42.2388C29.9502 41.3184 28.2587 40 26.8408 38.2587C24.8507 40 22.9104 41.3184 20.995 42.2388C19.0796 43.1592 17.189 43.607 15.2736 43.607H13.5821C13.0348 43.607 12.6865 43.5572 12.5124 43.4826V82.1642L12.5622 82.0896ZM87.3134 82.0896H12.5622H87.3134Z" fill="#FF5F2D"/>
</g>
<defs>
<clipPath id="clip0_120_338">
<rect width="100" height="89.5522" fill="white"/>
</clipPath>
</defs>
</svg>
