<svg width="100" height="80" viewBox="0 0 100 80" fill="none" xmlns="http://www.w3.org/2000/svg">
<path d="M10.75 68.75V7.5C10.75 5.5 11.5 3.75 13 2.25C14.5 0.75 16.25 0 18.25 0H92C93.075 0 93.975 0.35 94.7 1.05C95.4 1.75 95.75 2.65 95.75 3.725C95.75 4.8 95.4 5.7 94.7 6.4C94 7.1 93.1 7.475 92 7.475H18.25V68.725H41.875C43.45 68.725 44.8 69.275 45.875 70.35C46.95 71.425 47.5 72.775 47.5 74.35C47.5 75.925 46.95 77.275 45.875 78.35C44.8 79.425 43.45 79.975 41.875 79.975H5.625C4.05 79.975 2.7 79.425 1.625 78.35C0.55 77.275 0 75.925 0 74.35C0 72.775 0.55 71.425 1.625 70.35C2.7 69.275 4.05 68.725 5.625 68.725H10.75V68.75ZM59.875 80C58.55 80 57.4 79.5 56.425 78.5C55.475 77.5 54.975 76.175 54.975 74.5V19.875C54.975 18.55 55.45 17.4 56.425 16.425C57.375 15.475 58.525 15 59.875 15H93.875C95.55 15 96.975 15.475 98.175 16.425C99.375 17.375 99.975 18.525 99.975 19.875V74.5C99.975 76.175 99.375 77.5 98.175 78.5C96.975 79.5 95.525 80 93.875 80H59.875ZM62.5 68.75H92.5V22.5H62.5V68.75Z" fill="#FF5F2D"/>
</svg>
